<?xml version="1.0" encoding="utf-8"?>
<!-- Generated by IcoMoon.io -->
<!DOCTYPE svg PUBLIC "-//W3C//DTD SVG 1.1//EN" "http://www.w3.org/Graphics/SVG/1.1/DTD/svg11.dtd">

<svg version="1.1" xmlns="http://www.w3.org/2000/svg" xmlns:xlink="http://www.w3.org/1999/xlink" width="764" height="176" viewBox="0 0 764 176">
<defs>
<g id="home">
	<path d="M31.391 17.359q-0.609 0.609-1.469 0.609t-1.453-0.594l-0.469-0.469v13.094q0 0.813-0.578 1.406t-1.422 0.594h-6v-9q0-0.406-0.297-0.703t-0.703-0.297h-6q-0.406 0-0.703 0.297t-0.297 0.703v9h-6q-0.844 0-1.422-0.594t-0.578-1.406v-13.094l-0.469 0.469q-0.594 0.594-1.453 0.594t-1.469-0.609-0.609-1.469 0.594-1.453l13.875-13.875q0.625-0.625 1.531-0.594 0.906-0.031 1.531 0.594l13.875 13.875q0.594 0.594 0.594 1.453t-0.609 1.469z" />
</g>
<g id="user">
	<path d="M32 29.906q0 0.375-0.422 0.688t-1.297 0.516-1.797 0.375-2.359 0.266-2.5 0.141-2.734 0.078-2.531 0.031h-4.719t-2.531-0.031-2.734-0.078-2.5-0.141-2.359-0.266-1.797-0.375-1.297-0.516-0.422-0.688q0.063-2.75 3.438-4.859t8.563-2.797v-1.031q-1.625-0.719-2.813-2.031t-1.875-3.078-1-3.781-0.313-4.359q0-2 0.781-3.563t2.156-2.516 3.156-1.438 3.906-0.484 3.906 0.484 3.156 1.438 2.156 2.516 0.781 3.563q0 10.938-6 13.313v0.969q5.188 0.688 8.563 2.797t3.438 4.859z" />
</g>
<g id="friends">
	<path d="M32 18.313q0 0.313-0.266 0.563t-0.813 0.422-1.125 0.297-1.469 0.203-1.563 0.109-1.703 0.063-1.578 0.031h-5.484v-4h-0.031q-0.031-1.438-0.563-2.5 0.844-0.219 1.594-0.313v-0.969q-3-1.813-3-7.5 0-2.344 1.672-3.531t4.328-1.188 4.328 1.188 1.672 3.531q0 5.906-3 7.594v0.875q3.156 0.438 5.063 1.75t1.938 3.375zM13 24.313v0.875q3.156 0.438 5.063 1.766t1.938 3.359q0 0.313-0.266 0.563t-0.813 0.422-1.125 0.297-1.469 0.203-1.563 0.125-1.703 0.063-1.578 0.016h-2.969t-1.578-0.016-1.703-0.063-1.563-0.125-1.469-0.203-1.125-0.297-0.813-0.422-0.266-0.563q0.031-2.031 1.938-3.359t5.063-1.766v-0.969q-3-1.813-3-7.5 0-2.344 1.672-3.531t4.328-1.188 4.328 1.188 1.672 3.531q0 5.906-3 7.594z" />
</g>
<g id="uniF68D">
	<path d="M28 32h-14q-1.656 0-2.828-1.172t-1.172-2.828v-2q0-0.844 0.594-1.422t1.422-0.578 1.406 0.578 0.578 1.406 0.594 1.422 1.406 0.594h8q0.844 0 1.422-0.594t0.578-1.406v-20q0-0.844-0.578-1.422t-1.422-0.578h-8q-0.813 0-1.406 0.578t-0.594 1.406-0.578 1.422-1.406 0.594-1.422-0.594-0.594-1.406v-2q0-1.656 1.172-2.828t2.828-1.172h14q1.656 0 2.828 1.172t1.172 2.828v24q0 1.656-1.172 2.828t-2.828 1.172zM16 8.875q0-0.375 0.422-0.625t1-0.234 0.922 0.391l5.094 6.219q0.531 0.594 0.531 1.375t-0.531 1.344l-5.094 6.25q-0.344 0.375-0.922 0.391t-1-0.234-0.422-0.594v-3.156h-14q-0.844 0-1.422-0.578t-0.578-1.422v-4q0-0.844 0.578-1.422t1.422-0.578h14v-3.125z" />
</g>
<g id="uniF68E">
	<path d="M28 32h-14q-1.656 0-2.828-1.172t-1.172-2.828v-2q0-0.844 0.578-1.422t1.406-0.578 1.422 0.578 0.594 1.406 0.578 1.422 1.422 0.594h8q0.813 0 1.406-0.594t0.594-1.406v-20.031q0-0.813-0.594-1.406t-1.406-0.594h-8q-0.844 0-1.422 0.594t-0.578 1.422-0.594 1.422-1.422 0.594-1.406-0.594-0.578-1.438v-2q0-1.656 1.172-2.828t2.828-1.172h14q1.656 0 2.828 1.172t1.172 2.828v24.031q0 1.656-1.172 2.828t-2.828 1.172zM22 11.969q0.813 0 1.406 0.594t0.594 1.406v4.031q0 0.813-0.594 1.406t-1.406 0.594h-14v3.156q0 0.344-0.422 0.594t-1 0.219-0.922-0.375l-5.094-6.25q-0.563-0.563-0.563-1.359t0.563-1.359l5.094-6.25q0.344-0.344 0.922-0.359t1 0.234 0.422 0.625v3.094h14z" />
</g>
<g id="uniF681">
	<path d="M30 32h-12q-0.844 0-1.422-0.578t-0.578-1.422v-2h2v2h12v-12h-2v-2h2q0.813 0 1.406 0.594t0.594 1.406v12q0 0.844-0.594 1.422t-1.406 0.578zM24 26h-16q-0.844 0-1.422-0.578t-0.578-1.422v-16q0-0.813 0.578-1.406t1.422-0.594h16q0.844 0 1.422 0.594t0.578 1.406v16q0 0.844-0.594 1.422t-1.406 0.578zM14 2h-12v12h2v2h-2q-0.844 0-1.422-0.578t-0.578-1.422v-12q0-0.813 0.578-1.406t1.422-0.594h12q0.844 0 1.422 0.594t0.578 1.406v2h-2v-2z" />
</g>
<g id="plus">
	<path d="M30 20h-10v10q0 0.844-0.578 1.422t-1.422 0.578h-4q-0.844 0-1.422-0.594t-0.578-1.406v-10h-10q-0.844 0-1.422-0.594t-0.578-1.406v-4q0-0.844 0.578-1.422t1.422-0.578h10v-10q0-0.844 0.578-1.422t1.422-0.578h4q0.844 0 1.422 0.578t0.578 1.422v10h10q0.844 0 1.422 0.578t0.578 1.422v4q0 0.813-0.578 1.406t-1.422 0.594z" />
</g>
<g id="minus">
	<path d="M32 14v4q0 0.844-0.594 1.422t-1.406 0.578h-28q-0.813 0-1.406-0.578t-0.594-1.422v-4q0-0.813 0.578-1.406t1.422-0.594h28q0.813 0 1.406 0.594t0.594 1.406z" />
</g>
<g id="capslock">
	<path d="M29.156 16.031h-5.188v5.969q0 0.844-0.578 1.422t-1.391 0.578h-12q-0.813 0-1.406-0.578t-0.594-1.422v-5.969h-5.125q-0.375 0-0.625-0.406t-0.219-0.969 0.406-0.938l12.156-13.125q0.563-0.594 1.406-0.594t1.438 0.594l12.125 13.125q0.375 0.375 0.422 0.938t-0.203 0.969-0.625 0.406zM10 25.969h12q0.813 0 1.391 0.594t0.578 1.406v2.031q0 0.813-0.578 1.406t-1.391 0.594h-12q-0.813 0-1.406-0.578t-0.594-1.422v-2.031q0-0.813 0.594-1.406t1.406-0.594z" />
</g>
<g id="checkmark">
	<path d="M31.438 10.156l-19.344 19.313q-0.563 0.563-1.656 0.531-1-0.031-1.531-0.531l-8.344-8.344q-0.563-0.563-0.563-1.375t0.563-1.375l2.781-2.781q0.563-0.563 1.375-0.563t1.375 0.563l4.406 4.406 15.406-15.375q0.563-0.563 1.375-0.563t1.375 0.563l2.781 2.75q0.563 0.594 0.563 1.391t-0.563 1.391z" />
</g>
<g id="multiply">
	<path d="M21.906 16l9.469 9.5q0.625 0.625 0.625 1.484t-0.625 1.453l-2.938 2.938q-0.594 0.625-1.469 0.625t-1.469-0.625l-9.5-9.469-9.5 9.469q-0.594 0.625-1.469 0.625t-1.469-0.625l-2.938-2.938q-0.625-0.594-0.625-1.453t0.625-1.484l9.469-9.5-9.469-9.469q-0.625-0.625-0.625-1.484t0.625-1.484l2.938-2.938q0.594-0.594 1.469-0.594t1.469 0.594l9.5 9.5 9.5-9.5q0.594-0.594 1.469-0.594t1.469 0.594l2.938 2.938q0.625 0.625 0.625 1.484t-0.625 1.484z" />
</g>
<g id="uniF602">
	<path d="M0 32v-32h32v32h-32zM30 2h-28v28h28v-28zM28 22h-24v-18h24v18z" />
</g>
<g id="uniF5C6">
	<path d="M28 32h-24q-1.656 0-2.828-1.172t-1.172-2.828v-20q0-1.656 1.172-2.828t2.828-1.172h2v-2q0-0.844 0.578-1.422t1.422-0.578 1.422 0.578 0.578 1.422v2h4v-2q0-0.844 0.578-1.422t1.406-0.578 1.422 0.578 0.594 1.422v2h4v-2q0-0.844 0.578-1.422t1.406-0.578 1.422 0.578 0.594 1.422v2h2q1.656 0 2.828 1.172t1.172 2.828v20q0 1.656-1.172 2.828t-2.828 1.172zM28 8h-2q0 0.813-0.578 1.406t-1.406 0.594-1.422-0.594-0.594-1.406h-4q0 0.813-0.578 1.406t-1.406 0.594-1.422-0.594-0.594-1.406h-4q0 0.813-0.578 1.406t-1.406 0.594-1.422-0.594-0.594-1.406h-2v20h24v-20zM7 12h18q0.406 0 0.703 0.297t0.297 0.703-0.297 0.703-0.703 0.297h-18q-0.406 0-0.703-0.297t-0.297-0.703 0.297-0.703 0.703-0.297zM7 18h18q0.406 0 0.703 0.297t0.297 0.703-0.297 0.703-0.703 0.297h-18q-0.406 0-0.703-0.297t-0.297-0.703 0.297-0.703 0.703-0.297zM7 24h18q0.406 0 0.703 0.297t0.297 0.703-0.297 0.703-0.703 0.297h-18q-0.406 0-0.703-0.297t-0.297-0.703 0.297-0.703 0.703-0.297z" />
</g>
<g id="uniF4A1">
	<path d="M7 6q-0.406 0-0.703-0.297t-0.297-0.703 0.297-0.703 0.703-0.297h22q0.406 0 0.703 0.297t0.297 0.703-0.297 0.703-0.703 0.297h-22zM28 32h-21q-2.063 0-3.531-1.469t-1.469-3.531v-22q0-2.063 1.469-3.531t3.531-1.469h22q0.406 0 0.703 0.297t0.297 0.703-0.297 0.703-0.703 0.297h-22q-1.25 0-2.125 0.875t-0.875 2.125 0.875 2.125 2.125 0.875h23v22q0 0.844-0.578 1.422t-1.422 0.578z" />
</g>
<g id="uniF485">
	<path d="M30 32h-28q-0.813 0-1.406-0.578t-0.594-1.422v-28q0-0.844 0.594-1.422t1.406-0.578h28q0.844 0 1.422 0.578t0.578 1.422v28q0 0.844-0.578 1.422t-1.422 0.578zM30 2h-28v28h28v-28zM5 4h8q0.406 0 0.703 0.297t0.297 0.703v2q0 0.406-0.297 0.703t-0.703 0.297h-2.125l5.156 5.156 5.125-5.156h-2.156q-0.406 0-0.703-0.297t-0.297-0.703v-2q0-0.406 0.297-0.703t0.703-0.297h8q0.406 0 0.703 0.297t0.297 0.703v8q0 0.406-0.297 0.703t-0.703 0.297h-2q-0.406 0-0.703-0.297t-0.297-0.703v-2.156l-5.125 5.156 5.125 5.094v-2.094q0-0.406 0.297-0.703t0.703-0.297h2q0.406 0 0.703 0.297t0.297 0.703v8q0 0.406-0.297 0.703t-0.703 0.297h-8q-0.406 0-0.703-0.297t-0.297-0.703v-2q0-0.406 0.297-0.703t0.703-0.297h2.219l-5.156-5.156-5.156 5.156h2.094q0.406 0 0.703 0.297t0.297 0.703v2q0 0.406-0.297 0.703t-0.703 0.297h-8q-0.406 0-0.703-0.297t-0.297-0.703v-8q0-0.406 0.297-0.703t0.703-0.297h2q0.406 0 0.703 0.297t0.297 0.703v2.219l5.188-5.219-5.188-5.156v2.156q0 0.406-0.297 0.703t-0.703 0.297h-2q-0.406 0-0.703-0.297t-0.297-0.703v-8q0-0.406 0.297-0.703t0.703-0.297z" />
</g>
<g id="pigpenu">
	<path d="M30.313 5.563l-20.219 10.406 20.219 10.438q1.219 0.594 1.578 1.797t-0.344 2.281-2.047 1.406-2.563-0.297l-25.25-13.031q-1.219-0.594-1.578-1.797t0.328-2.297q0.406-0.625 1.125-1.031 0.031 0 0.063-0.031t0.063-0.031l25.25-13.031q1.219-0.625 2.563-0.297t2.047 1.406 0.344 2.281-1.578 1.828z" />
</g>
<g id="pigpent">
	<path d="M30.313 18.563l-25.25 13.031q-1.219 0.625-2.563 0.297t-2.047-1.406-0.344-2.281 1.578-1.797l20.219-10.438-20.219-10.406q-1.219-0.625-1.578-1.828t0.344-2.281 2.047-1.406 2.563 0.297l25.25 13.031q0.031 0 0.063 0.031t0.063 0.031q0.719 0.406 1.125 1.031 0.688 1.094 0.328 2.297t-1.578 1.797z" />
</g>
<g id="pigpenv">
	<path d="M30.5 31.547q-1.063 0.703-2.266 0.344t-1.828-1.578l-10.406-20.188-10.406 20.188q-0.625 1.219-1.828 1.578t-2.266-0.344-1.391-2.047 0.297-2.531l13-25.25 0.063-0.094q0.406-0.719 1.031-1.125 1.063-0.688 2.266-0.328t1.828 1.547l13 25.25q0.625 1.188 0.297 2.531t-1.391 2.047z" />
</g>
<g id="uniF480">
	<path d="M28 32h-24q-1.656 0-2.828-1.172t-1.172-2.828v-24q0-1.656 1.172-2.828t2.828-1.172h24q1.656 0 2.828 1.172t1.172 2.828v24q0 1.656-1.172 2.828t-2.828 1.172zM30 8q0-0.813-0.594-1.406t-1.406-0.594h-24q-0.813 0-1.406 0.594t-0.594 1.406v20q0 0.844 0.594 1.422t1.406 0.578h24q0.813 0 1.406-0.578t0.594-1.422v-20zM27 28h-16q-0.406 0-0.703-0.297t-0.297-0.703 0.297-0.703 0.703-0.297h16q0.406 0 0.703 0.297t0.297 0.703-0.297 0.703-0.703 0.297zM27 20h-16q-0.406 0-0.703-0.297t-0.297-0.703 0.297-0.703 0.703-0.297h16q0.406 0 0.703 0.297t0.297 0.703-0.297 0.703-0.703 0.297zM27 12h-16q-0.406 0-0.703-0.297t-0.297-0.703 0.297-0.703 0.703-0.297h16q0.406 0 0.703 0.297t0.297 0.703-0.297 0.703-0.703 0.297zM7 28h-2q-0.406 0-0.703-0.297t-0.297-0.703v-2q0-0.406 0.297-0.703t0.703-0.297h2q0.406 0 0.703 0.297t0.297 0.703v2q0 0.406-0.297 0.703t-0.703 0.297zM7 20h-2q-0.406 0-0.703-0.297t-0.297-0.703v-2q0-0.406 0.297-0.703t0.703-0.297h2q0.406 0 0.703 0.297t0.297 0.703v2q0 0.406-0.297 0.703t-0.703 0.297zM7 12h-2q-0.406 0-0.703-0.297t-0.297-0.703v-2q0-0.406 0.297-0.703t0.703-0.297h2q0.406 0 0.703 0.297t0.297 0.703v2q0 0.406-0.297 0.703t-0.703 0.297z" />
</g>
<g id="save">
	<path d="M30 32h-2v-14q0-0.813-0.594-1.406t-1.406-0.594h-20q-0.844 0-1.422 0.594t-0.578 1.406v14h-2q-0.813 0-1.406-0.594t-0.594-1.406v-28q0-0.813 0.594-1.406t1.406-0.594h26l4 4v26q0 0.813-0.594 1.406t-1.406 0.594zM24 2h-20v8q0 0.844 0.578 1.422t1.422 0.578h16q0.813 0 1.406-0.578t0.594-1.422v-8zM16 4h4v6h-4v-6zM7 18h18q0.406 0 0.703 0.297t0.297 0.703-0.297 0.703-0.703 0.297h-18q-0.406 0-0.703-0.297t-0.297-0.703 0.297-0.703 0.703-0.297zM7 24h18q0.406 0 0.703 0.297t0.297 0.703-0.297 0.703-0.703 0.297h-18q-0.406 0-0.703-0.297t-0.297-0.703 0.297-0.703 0.703-0.297zM7 30h18q0.406 0 0.703 0.297t0.297 0.703-0.297 0.703-0.703 0.297h-18q-0.406 0-0.703-0.297t-0.297-0.703 0.297-0.703 0.703-0.297z" />
</g>
<g id="list">
	<path d="M30 18h-16q-0.813 0-1.406-0.578t-0.594-1.406 0.594-1.422 1.406-0.594h16q0.813 0 1.406 0.594t0.594 1.422-0.594 1.406-1.406 0.578zM30 6h-16q-0.813 0-1.406-0.578t-0.594-1.406 0.594-1.422 1.406-0.594h16q0.813 0 1.406 0.594t0.594 1.422-0.594 1.406-1.406 0.578zM6 32h-4q-0.844 0-1.422-0.594t-0.578-1.406v-4q0-0.813 0.578-1.406t1.422-0.594h4q0.813 0 1.406 0.594t0.594 1.406v4q0 0.844-0.594 1.422t-1.406 0.578zM6 20h-4q-0.844 0-1.422-0.578t-0.578-1.422v-4q0-0.813 0.578-1.406t1.422-0.594h4q0.813 0 1.406 0.594t0.594 1.406v4q0 0.844-0.594 1.422t-1.406 0.578zM6 8h-4q-0.844 0-1.422-0.578t-0.578-1.422v-4q0-0.813 0.578-1.406t1.422-0.594h4q0.813 0 1.406 0.594t0.594 1.406v4q0 0.844-0.594 1.422t-1.406 0.578zM14 26h16q0.813 0 1.406 0.594t0.594 1.422-0.594 1.406-1.406 0.578h-16q-0.844 0-1.422-0.578t-0.578-1.406 0.578-1.422 1.422-0.594z" />
</g>
<g id="paperclip">
	<path d="M16.75 26q0.25-0.219 5-4.906t5.563-5.531q0.594-0.563 1.422-0.563t1.422 0.578 0.594 1.422-0.594 1.406q-0.688 0.688-5.406 5.438t-4.969 4.969q-2.125 2.094-4.984 2.844t-5.719-0.031-5.016-2.906-2.938-4.969-0.031-5.672 2.875-4.953l10.875-10.75q2.375-2.375 5.75-2.375t5.766 2.359 2.391 5.703-2.375 5.688l-8.938 8.844q-1.469 1.406-3.594 1.406t-3.609-1.422-1.484-3.375 1.469-3.391q0.531-0.531 3.594-3.672t3.5-3.578q0.594-0.594 1.422-0.594t1.406 0.594 0.578 1.422-0.563 1.422q-0.344 0.313-3.516 3.531t-3.484 3.531q-0.281 0.281-0.281 0.688t0.297 0.688 0.703 0.281 0.719-0.281l8.906-8.938q2.875-2.844-0.016-5.703t-5.766 0.016l-10.969 10.781q-2.156 2.156-2.141 5.047t2.125 4.969 4.984 2.094 5.031-2.109z" />
</g>
<g id="down">
	<path d="M14.594 31.406l-14-14.094q-0.594-0.594-0.594-1.438t0.594-1.406l2.813-2.875q0.594-0.594 1.422-0.594t1.422 0.594l5.75 5.781v-15.344q0-0.813 0.578-1.406t1.422-0.594h3.969q0.844 0 1.422 0.594t0.578 1.406v15.375l5.781-5.813q0.594-0.594 1.422-0.594t1.422 0.594l2.813 2.875q0.594 0.563 0.594 1.406t-0.594 1.438l-14 14.094q-0.563 0.594-1.406 0.594t-1.406-0.594z" />
</g>
<g id="downleft">
	<path d="M2 6.063h4q0.813 0 1.406 0.578t0.594 1.422v10.156l17.688-17.594q0.594-0.594 1.438-0.594t1.438 0.594l2.844 2.813q0.594 0.594 0.594 1.422t-0.594 1.422l-17.875 17.75h10.469q0.813 0 1.406 0.578t0.594 1.391v4q0 0.844-0.594 1.422t-1.406 0.578h-22q-0.844 0-1.422-0.578t-0.578-1.422v-21.938q0-0.844 0.578-1.422t1.422-0.578z" />
</g>
<g id="downright">
	<path d="M30 6.063h-4q-0.813 0-1.406 0.578t-0.594 1.422v10.125l-17.719-17.563q-0.563-0.594-1.406-0.594t-1.438 0.594l-2.844 2.813q-0.594 0.594-0.594 1.422t0.594 1.422l17.875 17.75h-10.469q-0.813 0-1.406 0.578t-0.594 1.391v4q0 0.844 0.594 1.422t1.406 0.578h22q0.844 0 1.422-0.578t0.578-1.422v-21.969q0-0.813-0.578-1.391t-1.422-0.578z" />
</g>
<g id="up">
	<path d="M17.406 0.625l14 14.125q0.594 0.594 0.594 1.422t-0.594 1.422l-2.813 2.844q-0.594 0.594-1.422 0.594t-1.422-0.594l-5.75-5.781v15.344q0 0.844-0.578 1.422t-1.422 0.578h-3.969q-0.844 0-1.422-0.578t-0.578-1.422v-15.375l-5.781 5.813q-0.594 0.594-1.422 0.594t-1.422-0.594l-2.813-2.844q-0.594-0.594-0.594-1.422t0.594-1.422l14-14.125q0.563-0.594 1.406-0.594t1.406 0.594z" />
</g>
<g id="upleft">
	<path d="M31.406 28.594l-2.844 2.813q-0.594 0.594-1.438 0.594t-1.438-0.594l-17.688-17.594v10.156q0 0.844-0.594 1.422t-1.406 0.578h-4q-0.813 0-1.406-0.578t-0.594-1.422v-21.969q0-0.844 0.578-1.422t1.422-0.578h22q0.813 0 1.406 0.578t0.594 1.422v4q0 0.813-0.594 1.406t-1.406 0.594h-10.438l17.844 17.75q0.594 0.594 0.594 1.422t-0.594 1.422z" />
</g>
<g id="upright">
	<path d="M30 25.969h-4q-0.813 0-1.406-0.578t-0.594-1.422v-10.125l-17.719 17.563q-0.563 0.594-1.406 0.594t-1.438-0.594l-2.844-2.813q-0.594-0.594-0.594-1.422t0.594-1.422l17.875-17.719h-10.469q-0.813 0-1.406-0.594t-0.594-1.406v-4q0-0.844 0.594-1.422t1.406-0.578h22q0.844 0 1.422 0.578t0.578 1.422v21.938q0 0.844-0.594 1.422t-1.406 0.578z" />
</g>
<g id="right">
	<path d="M31.406 17.406l-14.125 14q-0.594 0.594-1.422 0.594t-1.422-0.594l-2.875-2.844q-0.594-0.563-0.594-1.406t0.594-1.406l5.813-5.75h-15.375q-0.844 0-1.422-0.594t-0.578-1.406v-4q0-0.844 0.578-1.422t1.422-0.578h15.406l-5.844-5.781q-0.594-0.594-0.594-1.422t0.594-1.422l2.875-2.844q0.594-0.563 1.422-0.563t1.422 0.563l14.125 14.031q0.594 0.594 0.594 1.422t-0.594 1.422z" />
</g>
<g id="left">
	<path d="M0.594 14.563l14.125-14.031q0.594-0.594 1.422-0.594t1.422 0.594l2.875 2.844q0.594 0.594 0.594 1.422t-0.594 1.422l-5.813 5.75h15.375q0.844 0 1.422 0.578t0.578 1.422v4q0 0.813-0.578 1.406t-1.422 0.594h-15.406l5.844 5.781q0.594 0.563 0.594 1.406t-0.594 1.406l-2.875 2.844q-0.594 0.594-1.422 0.594t-1.422-0.594l-14.125-14q-0.594-0.594-0.594-1.422t0.594-1.422z" />
</g>
<g id="settings2">
	<path d="M31 18h-3.188q-0.438 2.719-2.063 4.969l1.969 2q0.281 0.281 0.281 0.688t-0.281 0.688l-1.375 1.375q-0.281 0.281-0.688 0.281t-0.688-0.281l-2-1.969q-2.25 1.625-4.969 2.063v3.188q0 0.406-0.297 0.703t-0.703 0.297h-2q-0.406 0-0.703-0.297t-0.297-0.703v-3.188q-2.719-0.438-4.969-2.063l-2 1.969q-0.281 0.281-0.688 0.281t-0.688-0.281l-1.375-1.375q-0.281-0.281-0.281-0.688t0.281-0.688l1.969-2q-1.625-2.25-2.063-4.969h-3.188q-0.406 0-0.703-0.297t-0.297-0.703v-2q0-0.406 0.297-0.703t0.703-0.297h3.188q0.438-2.688 2.063-4.969l-1.969-1.969q-0.281-0.281-0.281-0.688t0.281-0.688l1.375-1.406q0.281-0.281 0.688-0.281t0.688 0.281l2 2q2.25-1.625 4.969-2.094v-3.188q0-0.406 0.297-0.703t0.703-0.297h2q0.406 0 0.703 0.297t0.297 0.703v3.188q2.719 0.469 4.969 2.094l2-2q0.281-0.281 0.688-0.281t0.688 0.281l1.375 1.406q0.281 0.281 0.281 0.688t-0.281 0.688l-1.969 1.969q1.625 2.281 2.063 4.969h3.188q0.406 0 0.703 0.297t0.297 0.703v2q0 0.406-0.297 0.703t-0.703 0.297zM16 8q-3.313 0-5.672 2.344t-2.359 5.656 2.359 5.656 5.672 2.344 5.672-2.344 2.359-5.656-2.359-5.656-5.672-2.344z" />
</g>
<g id="uniF471">
	<path d="M16 32q-4.344 0-8.031-2.141t-5.828-5.828-2.141-8.031 2.141-8.031 5.828-5.828 8.031-2.141 8.031 2.141 5.828 5.828 2.141 8.031-2.141 8.031-5.828 5.828-8.031 2.141zM16 4q-3.25 0-6.016 1.609t-4.375 4.375-1.609 6.016 1.609 6.016 4.375 4.375 6.016 1.609 6.016-1.609 4.375-4.375 1.609-6.016-1.609-6.016-4.375-4.375-6.016-1.609zM15.938 20.594q-0.156 0.563-0.469 0.875-0.625 0.625-1.531 0.5-0.875 0.063-1.438-0.5-0.313-0.313-0.438-0.844l-3.563-3.563q-0.531-0.531-0.531-1.281t0.531-1.281 1.281-0.531 1.281 0.531l2.906 2.906 6.938-6.906q0.531-0.531 1.281-0.531t1.281 0.531 0.531 1.281-0.531 1.281z" />
</g>
<g id="uniF470">
	<path d="M16 32q-3.25 0-6.219-1.266t-5.109-3.406-3.406-5.109-1.266-6.219 1.266-6.219 3.406-5.109 5.109-3.406 6.219-1.266 6.219 1.266 5.109 3.406 3.406 5.109 1.266 6.219-1.266 6.219-3.406 5.109-5.109 3.406-6.219 1.266zM16 4q-3.25 0-6.016 1.609t-4.375 4.375-1.609 6.016 1.609 6.016 4.375 4.375 6.016 1.609 6.016-1.609 4.375-4.375 1.609-6.016-1.609-6.016-4.375-4.375-6.016-1.609zM21.469 21.469q-0.531 0.531-1.281 0.531t-1.281-0.531l-2.938-2.938-2.906 2.938q-0.531 0.531-1.281 0.531t-1.281-0.531-0.531-1.281 0.531-1.281l2.906-2.938-2.906-2.906q-0.531-0.531-0.531-1.281t0.531-1.281 1.281-0.531 1.281 0.531l2.906 2.938 2.938-2.938q0.531-0.531 1.281-0.531t1.281 0.531 0.531 1.281-0.531 1.281l-2.938 2.906 2.938 2.938q0.531 0.531 0.531 1.281t-0.531 1.281z" />
</g>
<g id="uniF472">
	<path d="M16 32q-4.344 0-8.031-2.141t-5.828-5.828-2.141-8.031 2.141-8.031 5.828-5.828 8.031-2.141 8.031 2.141 5.828 5.828 2.141 8.031-2.141 8.031-5.828 5.828-8.031 2.141zM24 14h-11.156l2.563-2.563q0.594-0.594 0.594-1.438t-0.594-1.438-1.438-0.594-1.438 0.594l-5.969 5.969q-0.25 0.25-0.406 0.688 0 0.031-0.063 0.188l-0.016 0.047t-0.016 0.078q0 0.063-0.031 0.156v0.125q-0.125 1 0.531 1.656l5.969 5.969q0.594 0.594 1.438 0.594t1.438-0.594 0.594-1.438-0.594-1.438l-2.563-2.563h11.156q0.813 0 1.406-0.594t0.594-1.406-0.578-1.406-1.422-0.594z" />
</g>
<g id="uniF473">
	<path d="M16 32q-4.344 0-8.031-2.141t-5.828-5.828-2.141-8.031 2.141-8.031 5.828-5.828 8.031-2.141 8.031 2.141 5.828 5.828 2.141 8.031-2.141 8.031-5.828 5.828-8.031 2.141zM25.969 15.813v-0.125q0-0.094-0.031-0.156 0-0.031-0.016-0.078t-0.031-0.063-0.031-0.078-0.016-0.094q-0.156-0.438-0.406-0.688l-5.969-5.969q-0.594-0.594-1.438-0.594t-1.438 0.594-0.594 1.438 0.594 1.438l2.563 2.563h-11.156q-0.813 0-1.406 0.594t-0.594 1.406 0.594 1.406 1.406 0.594h11.156l-2.563 2.563q-0.594 0.594-0.594 1.438t0.594 1.438 1.438 0.594 1.438-0.594l5.969-5.969q0.656-0.656 0.531-1.656z" />
</g>
<g id="uniF474">
	<path d="M16 32q-4.344 0-8.031-2.141t-5.828-5.828-2.141-8.031 2.141-8.031 5.828-5.828 8.031-2.141 8.031 2.141 5.828 5.828 2.141 8.031-2.141 8.031-5.828 5.828-8.031 2.141zM23.406 12.531l-5.938-5.938q-0.688-0.656-1.688-0.531h-0.094q-0.094 0-0.188 0.031l-0.047 0.016t-0.078 0.016l-0.063 0.031t-0.094 0.031q-0.469 0.156-0.719 0.406l-5.938 5.938q-0.594 0.594-0.594 1.438t0.594 1.438 1.438 0.594 1.438-0.594l2.563-2.531v11.125q0 0.844 0.578 1.422t1.406 0.578 1.406-0.578 0.578-1.422v-11.125l2.563 2.531q0.594 0.594 1.438 0.594t1.438-0.594 0.594-1.438-0.594-1.438z" />
</g>
<g id="uniF475">
	<path d="M16 32q-4.344 0-8.031-2.141t-5.828-5.828-2.141-8.031 2.141-8.031 5.828-5.828 8.031-2.141 8.031 2.141 5.828 5.828 2.141 8.031-2.141 8.031-5.828 5.828-8.031 2.141zM23.406 16.594q-0.594-0.594-1.438-0.594t-1.438 0.594l-2.563 2.531v-11.125q0-0.844-0.578-1.422t-1.406-0.578-1.406 0.578-0.578 1.422v11.125l-2.563-2.531q-0.594-0.594-1.438-0.594t-1.438 0.594-0.594 1.438 0.594 1.438l5.938 5.938q0.25 0.25 0.719 0.406 0.031 0 0.094 0.031 0.063 0 0.078 0.016t0.063 0.031l0.047 0.016q0.094 0.031 0.188 0.031h0.094q1 0.125 1.688-0.531l5.938-5.938q0.594-0.594 0.594-1.438t-0.594-1.438z" />
</g>
<g id="uniF476">
	<path d="M16 32q-4.344 0-8.031-2.141t-5.828-5.828-2.141-8.031 2.141-8.031 5.828-5.828 8.031-2.141 8.031 2.141 5.828 5.828 2.141 8.031-2.141 8.031-5.828 5.828-8.031 2.141zM24 15q0-0.406-0.297-0.703t-0.703-0.297h-5v-5q0-0.406-0.297-0.703t-0.703-0.297h-2q-0.406 0-0.703 0.297t-0.297 0.703v5h-5q-0.406 0-0.703 0.297t-0.297 0.703v2q0 0.406 0.297 0.703t0.703 0.297h5v5q0 0.406 0.297 0.703t0.703 0.297h2q0.406 0 0.703-0.297t0.297-0.703v-5h5q0.406 0 0.703-0.297t0.297-0.703v-2z" />
</g>
<g id="uniF477">
	<path d="M16 32q-4.344 0-8.031-2.141t-5.828-5.828-2.141-8.031 2.141-8.031 5.828-5.828 8.031-2.141 8.031 2.141 5.828 5.828 2.141 8.031-2.141 8.031-5.828 5.828-8.031 2.141zM24 15q0-0.406-0.297-0.703t-0.703-0.297h-14q-0.406 0-0.703 0.297t-0.297 0.703v2q0 0.406 0.297 0.703t0.703 0.297h14q0.406 0 0.703-0.297t0.297-0.703v-2z" />
</g>
<g id="uniF478">
	<path d="M16 32q-3.25 0-6.219-1.266t-5.109-3.406-3.406-5.109-1.266-6.219 1.266-6.219 3.406-5.109 5.109-3.406 6.219-1.266 6.219 1.266 5.109 3.406 3.406 5.109 1.266 6.219-1.266 6.219-3.406 5.109-5.109 3.406-6.219 1.266zM23.719 11.063q0.281-0.313 0.281-0.719t-0.281-0.688l-1.375-1.375q-0.313-0.281-0.703-0.281t-0.703 0.281l-4.938 4.969-4.969-4.969q-0.281-0.281-0.688-0.281t-0.688 0.281l-1.375 1.375q-0.281 0.281-0.281 0.688t0.281 0.719l4.938 4.938-4.938 4.938q-0.281 0.313-0.281 0.719t0.281 0.688l1.375 1.375q0.281 0.281 0.688 0.281t0.688-0.281l4.969-4.969 4.938 4.969q0.313 0.281 0.703 0.281t0.703-0.281l1.375-1.375q0.281-0.281 0.281-0.688t-0.281-0.719l-4.969-4.938z" />
</g>
<g id="uniF479">
	<path d="M16 32q-4.344 0-8.031-2.141t-5.828-5.828-2.141-8.031 2.141-8.031 5.828-5.828 8.031-2.141 8.031 2.141 5.828 5.828 2.141 8.031-2.141 8.031-5.828 5.828-8.031 2.141zM25.719 10.656l-1.375-1.375q-0.313-0.281-0.703-0.281t-0.703 0.281l-9.438 9.438-4.469-4.438q-0.281-0.281-0.688-0.281t-0.688 0.281l-1.375 1.375q-0.281 0.281-0.281 0.688t0.281 0.719l4.75 4.719q0.031 0.344 0.25 0.563l1.375 1.375q0.344 0.344 0.844 0.25 0.5 0.094 0.844-0.25l1.375-1.375q0.188-0.219 0.25-0.563l9.75-9.75q0.281-0.281 0.281-0.688t-0.281-0.688z" />
</g>
<g id="magnifier">
	<path d="M29.156 29.961l-0.709 0.709c-0.785 0.784-2.055 0.784-2.838 0l-5.676-5.674c-0.656-0.658-0.729-1.644-0.281-2.412l-3.104-3.102c-1.669 1.238-3.728 1.979-5.965 1.979-5.54 0-10.031-4.491-10.031-10.031 0-5.541 4.491-10.032 10.031-10.032 5.541 0 10.031 4.491 10.031 10.032 0 2.579-0.98 4.923-2.58 6.7l3.035 3.035c0.768-0.447 1.754-0.375 2.41 0.283l5.676 5.674c0.784 0.785 0.784 2.056 0.001 2.839zM18.088 11.389c0-4.155-3.369-7.523-7.524-7.523s-7.524 3.367-7.524 7.523 3.368 7.523 7.523 7.523 7.525-3.368 7.525-7.523z" />
</g>
<g id="zoomin">
	<path d="M29.156 29.961l-0.709 0.709c-0.785 0.784-2.055 0.784-2.838 0l-5.676-5.674c-0.656-0.658-0.729-1.644-0.281-2.412l-3.104-3.102c-1.669 1.238-3.728 1.979-5.965 1.979-5.54 0-10.031-4.491-10.031-10.031 0-5.541 4.491-10.032 10.031-10.032 5.541 0 10.031 4.491 10.031 10.032 0 2.579-0.98 4.923-2.58 6.7l3.035 3.035c0.768-0.447 1.754-0.375 2.41 0.283l5.676 5.674c0.784 0.785 0.784 2.056 0.001 2.839zM18.088 11.389c0-4.155-3.369-7.523-7.524-7.523s-7.524 3.367-7.524 7.523 3.368 7.523 7.523 7.523 7.525-3.368 7.525-7.523zM11.002 13.959h-1.003v-1.943h-2.006v-1.003h2.006v-2.007h1.003v2.007h2.007v1.003h-2.007v1.943z" />
</g>
<g id="zoomout">
	<path d="M7.993 11.013h5.016v1.003h-5.016zM29.156 27.123l-5.676-5.674c-0.656-0.658-1.643-0.73-2.41-0.283l-3.035-3.035c1.6-1.777 2.58-4.121 2.58-6.7 0-5.541-4.49-10.032-10.031-10.032-5.54 0-10.031 4.491-10.031 10.032 0 5.54 4.491 10.031 10.031 10.031 2.237 0 4.296-0.741 5.965-1.979l3.104 3.102c-0.447 0.769-0.375 1.754 0.281 2.412l5.676 5.674c0.783 0.784 2.053 0.784 2.838 0l0.709-0.709c0.782-0.784 0.782-2.055-0.001-2.839zM10.563 18.912c-4.155 0-7.523-3.368-7.523-7.523s3.368-7.523 7.523-7.523 7.524 3.368 7.524 7.523-3.368 7.523-7.524 7.523z" />
</g>
<g id="checkmark2">
	<path d="M28.998 8.531l-2.134-2.134c-0.394-0.393-1.030-0.393-1.423 0l-12.795 12.795-6.086-6.13c-0.393-0.393-1.029-0.393-1.423 0l-2.134 2.134c-0.393 0.394-0.393 1.030 0 1.423l8.924 8.984c0.393 0.393 1.030 0.393 1.423 0l15.648-15.649c0.393-0.392 0.393-1.030 0-1.423z" />
</g>
<g id="cancel">
	<path d="M19.587 16.001l6.096 6.096c0.396 0.396 0.396 1.039 0 1.435l-2.151 2.151c-0.396 0.396-1.038 0.396-1.435 0l-6.097-6.096-6.097 6.096c-0.396 0.396-1.038 0.396-1.434 0l-2.152-2.151c-0.396-0.396-0.396-1.038 0-1.435l6.097-6.096-6.097-6.097c-0.396-0.396-0.396-1.039 0-1.435l2.153-2.151c0.396-0.396 1.038-0.396 1.434 0l6.096 6.097 6.097-6.097c0.396-0.396 1.038-0.396 1.435 0l2.151 2.152c0.396 0.396 0.396 1.038 0 1.435l-6.096 6.096z" />
</g>
<g id="uniF596">
	<path d="M18 28.031q-4.656 0-8.406-2.844-1.219 1.813-2.641 3.625t-1.953 2.344q-0.875 0.844-2.078 0.844t-2.063-0.859-0.859-2.063 0.844-2.047q0.531-0.531 2.359-1.953t3.609-2.641q-2.813-3.75-2.813-8.406 0-2.844 1.109-5.438t2.984-4.469 4.469-2.984 5.438-1.109 5.438 1.109 4.469 2.984 2.984 4.469 1.109 5.438-1.109 5.438-2.984 4.469-4.469 2.984-5.438 1.109zM18 4.031q-2.719 0-5.016 1.344t-3.641 3.641-1.344 5.016 1.344 5.016 3.641 3.641 5.016 1.344 5.016-1.344 3.641-3.641 1.344-5.016-1.344-5.016-3.641-3.641-5.016-1.344zM18 18.031q1.656 0 2.844-1.188l2.813 2.844q-2.344 2.344-5.656 2.344t-5.656-2.344-2.344-5.656 2.344-5.656 5.656-2.344 5.656 2.344l-2.813 2.813q-1.188-1.156-2.844-1.156t-2.828 1.172-1.172 2.828 1.172 2.828 2.828 1.172z" />
</g>
<g id="search">
	<path d="M32 29.091c0 2.909-2.909 2.909-2.909 2.909l-8.323-8.321c-2.157 1.568-4.804 2.503-7.677 2.503-7.231 0-13.091-5.86-13.091-13.091s5.86-13.091 13.091-13.091 13.091 5.86 13.091 13.091c0 2.873-0.937 5.52-2.505 7.679l8.323 8.321zM13.091 2.909c-5.623 0-10.182 4.559-10.182 10.182s4.559 10.182 10.182 10.182 10.182-4.559 10.182-10.182-4.559-10.182-10.182-10.182z" />
</g>
<g id="pictures">
	<path d="M29.091 32h-26.182c-1.606 0-2.909-1.303-2.909-2.909v-26.182c0-1.606 1.303-2.909 2.909-2.909h26.182c1.606 0 2.909 1.303 2.909 2.909v26.182c0 1.606-1.303 2.909-2.909 2.909zM29.091 2.909h-26.182v26.182h26.182v-26.182zM14.545 21.818l4.364-5.818 7.273 10.182h-20.364l5.818-7.273 2.909 2.909zM11.636 13.091c-1.606 0-2.909-1.303-2.909-2.909s1.303-2.909 2.909-2.909 2.909 1.303 2.909 2.909-1.303 2.909-2.909 2.909z" />
</g>
<g id="images">
	<path d="M8.727 14.545c0-1.607 1.302-2.909 2.909-2.909s2.909 1.302 2.909 2.909c0 1.607-1.302 2.909-2.909 2.909-1.607 0-2.909-1.302-2.909-2.909zM21.818 16l-7.273 7.273-2.909-2.909-5.818 5.818h26.182zM34.909 5.818h-32c-1.606 0-2.909 1.303-2.909 2.909v20.364c0 1.606 1.303 2.909 2.909 2.909h32c1.606 0 2.909-1.303 2.909-2.909v-20.364c0-1.606-1.303-2.909-2.909-2.909zM34.909 29.091h-32v-20.364h32v20.364zM40.727 0h-32c-1.606 0-2.909 1.303-2.909 2.909h34.909v23.273c1.606 0 2.909-1.303 2.909-2.909v-20.364c0-1.606-1.303-2.909-2.909-2.909z" />
</g>
<g id="search2">
	<path d="M31.008 27.231l-7.58-6.447c-0.784-0.705-1.622-1.029-2.299-0.998 1.789-2.096 2.87-4.815 2.87-7.787 0-6.627-5.373-12-12-12-6.627 0-12 5.373-12 12 0 6.627 5.373 12 12 12 2.972 0 5.691-1.081 7.787-2.87-0.031 0.677 0.293 1.515 0.998 2.299l6.447 7.58c1.104 1.226 2.907 1.33 4.007 0.23s0.997-2.903-0.23-4.007zM12 20c-4.418 0-8-3.582-8-8s3.582-8 8-8 8 3.582 8 8-3.582 8-8 8z" />
</g>
<g id="search3">
	<path d="M31.12 31.12c-1.174 1.174-3.077 1.174-4.25 0l-5.304-5.304c-2.18 1.399-4.758 2.232-7.541 2.232-7.745 0-14.024-6.278-14.024-14.024s6.279-14.024 14.024-14.024c7.746 0 14.024 6.278 14.024 14.024 0 2.782-0.834 5.361-2.232 7.542l5.304 5.304c1.174 1.174 1.174 3.076 0 4.249zM14.024 4.007c-5.532 0-10.017 4.484-10.017 10.017s4.485 10.017 10.017 10.017c5.533 0 10.017-4.484 10.017-10.017s-4.484-10.017-10.017-10.017z" />
</g>
<g id="zoomin2">
	<path d="M31.12 31.12c-1.174 1.174-3.077 1.174-4.25 0l-5.304-5.304c-2.181 1.398-4.758 2.232-7.541 2.232-7.745 0-14.024-6.278-14.024-14.024s6.279-14.024 14.024-14.024c7.746 0 14.024 6.278 14.024 14.024 0 2.783-0.834 5.361-2.232 7.542l5.304 5.303c1.174 1.174 1.174 3.076 0 4.25zM14.024 4.007c-5.532 0-10.017 4.485-10.017 10.017 0 5.533 4.485 10.017 10.017 10.017 5.533 0 10.017-4.484 10.017-10.017 0-5.532-4.484-10.017-10.017-10.017zM16.027 20.034h-4.007v-4.007h-4.007v-4.007h4.007v-4.007h4.007v4.007h4.007v4.007h-4.007v4.007z" />
</g>
<g id="zoomout2">
	<path d="M31.12 26.869l-5.304-5.303c1.398-2.181 2.232-4.759 2.232-7.542 0-7.746-6.278-14.024-14.024-14.024-7.745 0-14.024 6.278-14.024 14.024s6.279 14.024 14.024 14.024c2.783 0 5.361-0.834 7.541-2.232l5.304 5.304c1.174 1.174 3.077 1.174 4.25 0 1.174-1.174 1.174-3.077 0-4.25zM14.024 24.041c-5.532 0-10.017-4.484-10.017-10.017 0-5.532 4.485-10.017 10.017-10.017 5.533 0 10.017 4.485 10.017 10.017 0 5.533-4.484 10.017-10.017 10.017zM8.014 16.027h12.021v-4.007h-12.021v4.007z" />
</g>
<g id="search4">
	<path d="M28.072 24.749l-6.046-6.046c0.912-1.499 1.437-3.256 1.437-5.139 0-5.466-4.738-10.203-10.205-10.203-5.466 0-9.898 4.432-9.898 9.898 0 5.467 4.736 10.205 10.203 10.205 1.818 0 3.52-0.493 4.984-1.349l6.078 6.080c0.597 0.595 1.56 0.595 2.154 0l1.509-1.507c0.594-0.595 0.378-1.344-0.216-1.938zM6.406 13.258c0-3.784 3.067-6.853 6.851-6.853 3.786 0 7.158 3.373 7.158 7.158s-3.067 6.853-6.853 6.853-7.157-3.373-7.157-7.158z" />
</g>
</defs>

<g fill="#000000">
	<use xlink:href="#home" transform="translate(0 0)"></use>
	<use xlink:href="#user" transform="translate(48 0)"></use>
	<use xlink:href="#friends" transform="translate(108 0)"></use>
	<use xlink:href="#uniF68D" transform="translate(156 0)"></use>
	<use xlink:href="#uniF68E" transform="translate(204 0)"></use>
	<use xlink:href="#uniF681" transform="translate(252 0)"></use>
	<use xlink:href="#plus" transform="translate(300 0)"></use>
	<use xlink:href="#minus" transform="translate(348 0)"></use>
	<use xlink:href="#capslock" transform="translate(396 0)"></use>
	<use xlink:href="#checkmark" transform="translate(444 0)"></use>
	<use xlink:href="#multiply" transform="translate(492 0)"></use>
	<use xlink:href="#uniF602" transform="translate(540 0)"></use>
	<use xlink:href="#uniF5C6" transform="translate(588 0)"></use>
	<use xlink:href="#uniF4A1" transform="translate(636 0)"></use>
	<use xlink:href="#uniF485" transform="translate(684 0)"></use>
	<use xlink:href="#pigpenu" transform="translate(732 0)"></use>
	<use xlink:href="#pigpent" transform="translate(0 48)"></use>
	<use xlink:href="#pigpenv" transform="translate(48 48)"></use>
	<use xlink:href="#uniF480" transform="translate(108 48)"></use>
	<use xlink:href="#save" transform="translate(156 48)"></use>
	<use xlink:href="#list" transform="translate(204 48)"></use>
	<use xlink:href="#paperclip" transform="translate(252 48)"></use>
	<use xlink:href="#down" transform="translate(300 48)"></use>
	<use xlink:href="#downleft" transform="translate(348 48)"></use>
	<use xlink:href="#downright" transform="translate(396 48)"></use>
	<use xlink:href="#up" transform="translate(444 48)"></use>
	<use xlink:href="#upleft" transform="translate(492 48)"></use>
	<use xlink:href="#upright" transform="translate(540 48)"></use>
	<use xlink:href="#right" transform="translate(588 48)"></use>
	<use xlink:href="#left" transform="translate(636 48)"></use>
	<use xlink:href="#settings2" transform="translate(684 48)"></use>
	<use xlink:href="#uniF471" transform="translate(732 48)"></use>
	<use xlink:href="#uniF470" transform="translate(0 96)"></use>
	<use xlink:href="#uniF472" transform="translate(48 96)"></use>
	<use xlink:href="#uniF473" transform="translate(108 96)"></use>
	<use xlink:href="#uniF474" transform="translate(156 96)"></use>
	<use xlink:href="#uniF475" transform="translate(204 96)"></use>
	<use xlink:href="#uniF476" transform="translate(252 96)"></use>
	<use xlink:href="#uniF477" transform="translate(300 96)"></use>
	<use xlink:href="#uniF478" transform="translate(348 96)"></use>
	<use xlink:href="#uniF479" transform="translate(396 96)"></use>
	<use xlink:href="#magnifier" transform="translate(444 96)"></use>
	<use xlink:href="#zoomin" transform="translate(492 96)"></use>
	<use xlink:href="#zoomout" transform="translate(540 96)"></use>
	<use xlink:href="#checkmark2" transform="translate(588 96)"></use>
	<use xlink:href="#cancel" transform="translate(636 96)"></use>
	<use xlink:href="#uniF596" transform="translate(684 96)"></use>
	<use xlink:href="#search" transform="translate(732 96)"></use>
	<use xlink:href="#pictures" transform="translate(0 144)"></use>
	<use xlink:href="#images" transform="translate(48 144)"></use>
	<use xlink:href="#search2" transform="translate(108 144)"></use>
	<use xlink:href="#search3" transform="translate(156 144)"></use>
	<use xlink:href="#zoomin2" transform="translate(204 144)"></use>
	<use xlink:href="#zoomout2" transform="translate(252 144)"></use>
	<use xlink:href="#search4" transform="translate(300 144)"></use>
</g>

</svg>
